<svg id="Lager_2" data-name="Lager 2" xmlns="http://www.w3.org/2000/svg" viewBox="0 0 1155.09 1934.56"><defs><style>.cls-1{fill:#fff;}.cls-2{fill:#d3a879;}.cls-3,.cls-5,.cls-8,.cls-9{fill:none;}.cls-3,.cls-4,.cls-9{stroke:#1d1d1b;}.cls-3,.cls-4,.cls-5,.cls-8,.cls-9{stroke-miterlimit:10;}.cls-3,.cls-5{stroke-width:8px;}.cls-4{fill:#1d1d1b;}.cls-5{stroke:#e30613;}.cls-6{fill:#ededed;}.cls-7{fill:#f39200;}.cls-8{stroke:#f39200;stroke-width:18px;}.cls-9{stroke-width:60px;}</style></defs><title>Marsmallow</title><path class="cls-1" d="M2282.44,2319.36a815,815,0,0,1-83.49-24.64c-38.3-13.55-62.34-22.05-91.7-39.69a337.44,337.44,0,0,1-91.7-80.75c-14.41-18.45-26.67-34-34.22-58.85a150.49,150.49,0,0,1-4.11-68.43c4.71-18.59,12.58-50,21.9-89,29.2-122.22,53.45-224.84,71.17-353.11,6.52-47.18,5.48-71.88,13.69-120.44,6.45-38.19,11.72-56.91,23.27-76.64,19.27-32.91,45.39-50.48,60.22-60.22,45.12-29.63,91.16-34.53,120.44-37,175-14.48,327.14,22.44,327.14,22.44s103.35,25.08,235.26,95.52c20.09,10.73,52.36,29,77.37,65.52a182.85,182.85,0,0,1,28.42,67.1c3.24,16.48,4.58,36-4.74,89.21-6.74,38.44-13.36,62-33.95,138.94-13.21,49.39-19.88,74.34-22.89,86.84-7.84,32.51-18,74.61-26.05,127.89-10.94,72.27-16.41,108.41-17.37,153.94-0.25,12-.3,28.83-6.32,50.52-10.2,36.81-30.22,61.13-37.89,70.26-21.7,25.82-56.72,52.95-120.79,71.84C2564.38,2386.6,2450.71,2359.49,2282.44,2319.36Z" transform="translate(-1912.09 -680.15)"/><path class="cls-2" d="M2854.28,1909.09c27.84-36.27,50.57-62.46,67.29-81.65,18.55-21.29,42.3-47.64,70.88-77.16a92.13,92.13,0,0,1-.9-19.74c0.7-11.3,1.11-17.93,6.28-22.43a17.89,17.89,0,0,1,18.84-2.69c7,3.3,11.13,11.33,9.87,19.74a49.56,49.56,0,0,1,16.15-1.79c6,0.34,12.45.7,17.95,5.38,1.41,1.2,5.27,4.49,6.28,9.87,1.92,10.2-8.21,18.26-9,18.84-1.29,1-5.3,3.87-18.84,5.38a118.28,118.28,0,0,1-26,0c-21.59,20.45-40.06,39.89-55.63,57.42-7.47,8.42-22.43,26.66-52,62.81-36.12,44.09-43.67,53.57-50.25,61.91-16.25,20.62-29.42,38-38.58,50.25-2.54,5.13-8.06,7.5-12.29,6.15-5.2-1.67-8.54-9-5.18-15.53C2812.76,1965.55,2831.22,1939.14,2854.28,1909.09Z" transform="translate(-1912.09 -680.15)"/><path class="cls-2" d="M2051.72,1719.5q-2.89,15.8-6.25,30.65c-3.55-9.35-8.89-23.66-15-41.28-8.87-25.55-11.16-34.33-23.77-73.18-31.73-97.74-23.18-60.36-26.27-72.55-1.78-7-6.17-25.6-21.89-39.4a60,60,0,0,0-5.63-4.38,57.26,57.26,0,0,1-12.51-3.75c-4.05-1.74-16.36-7.23-23.77-20-2.7-4.67-6.09-10.51-3.75-15.64s9-6.52,10.63-6.88c1.9-.41,5.61-0.9,20,3.75,4.43,1.43,8.08,2.77,10.63,3.75a35.31,35.31,0,0,1,3.75-7.51c2.77-4.2,6.23-9.43,11.26-10,5.55-.63,10.77,4.64,13.13,8.76,4.22,7.34,2.35,16.21.63,24.39-0.63,3-2.5,10.63-2.5,10.63h0l-0.63,9.38c1.91,2.74,4.6,6.8,7.51,11.88a165.69,165.69,0,0,1,13.76,31.27c5.89,17.58,13.4,34.58,20,51.91,13.18,34.54,14.55,36.7,20,52.54,6.16,17.86,10.43,32.6,13,42Q2053,1712.59,2051.72,1719.5Z" transform="translate(-1912.09 -680.15)"/><path class="cls-2" d="M2173.35,2285.46q8.81,2.91,16.94,6a311,311,0,0,0-11.44,39.95,248.26,248.26,0,0,0-5,31c-1.8,19.36-3.3,35.6,2.35,55.19,5,17.47,13.36,29.32,19.14,37.52,6.25,8.87,13.85,19.46,27.57,29.1a99.73,99.73,0,0,0,28.33,13.78,102.27,102.27,0,0,0,38.29,3.83c7.67-.51,11.6-0.81,16.08-3.06,1.71-.86,6.3-3.38,18.38-19.14,7.62-9.94,8-11.82,12.25-14.55,2.49-1.6,9.84-6.33,18.38-3.83a20.7,20.7,0,0,1,11.49,9.19l-2.3,57.43c-1.34,2.13-3.17,5-5.36,8.42-7.12,11.08-8.16,12.26-10,13-5.7,2.42-13.45-1.7-17.61-6.13-8.46-9-4.85-22.09-4.59-23-1.75-2.13-4.48-4.76-7.66-4.59-4.06.21-6.76,4.83-7.66,6.13-7.75,11.19-44.55,10.41-73.51,0-5.29-1.9-31.25-11.65-50.54-34.46-5.33-6.3-10.87-14.46-13-17.61-5.9-8.67-13.2-19.41-18.38-31.39-7.46-17.26-8.3-32-9.19-47.48-1-17.82.54-30.63,3.06-50.54a562.24,562.24,0,0,1,10.72-59Q2166.58,2283.24,2173.35,2285.46Z" transform="translate(-1912.09 -680.15)"/><path class="cls-2" d="M2470.93,2359.16l16,2.31c-0.74,4.64-1.85,11.61-3.26,20.09-3.66,22.12-4.25,24.26-5.43,32.57a268.17,268.17,0,0,0-3.26,36.92c-0.17,15.7-.26,24.15,2.71,35.29,5.07,19,15.24,31.5,20.63,38a111.82,111.82,0,0,0,26.6,23.34,109.35,109.35,0,0,0,34.2,14.12c12.46,2.75,21.9,2.46,31.49,2.17,10.93-.33,16.52-0.56,22.8-3.8,8.37-4.32,14.34-11.79,15.74-13.57s0.9-1.35,6.51-9.23c6.67-9.35,7.77-10.51,9.77-11.4,4.81-2.12,10-.54,13.57.54a29.25,29.25,0,0,1,8.69,4.34q-0.05,14-.54,28.77-0.56,16.48-1.63,32a40.64,40.64,0,0,1-6,12.49c-3.1,4.36-5.8,8.15-10.86,9.77s-11.78.9-15.74-3.26c-3.06-3.21-3.41-7.39-3.8-11.94-0.79-9.23,2.47-13.19-.54-17.37-1.32-1.83-3.68-3.48-6-3.26-3.41.33-5.35,4.64-6.51,6.51-6.13,9.86-26.29,9.15-39.72,8.68a116.11,116.11,0,0,1-40.67-8.9c-13.27-5.57-21.8-12-31.78-19.7-13.87-10.66-28.44-21.86-40.67-41.94a134.46,134.46,0,0,1-15.89-40c-3.14-14-2.94-25-2.54-47,0.27-15.06.68-32.75,5.72-55.29a232,232,0,0,1,6.35-22.88Z" transform="translate(-1912.09 -680.15)"/><path class="cls-3" d="M2170.67,1765.59a46.45,46.45,0,0,1,83,28.18" transform="translate(-1912.09 -680.15)"/><path class="cls-3" d="M2430.34,1842.5c1.54-1.92,16.82-20.34,41.12-19,19.68,1.05,37.23,14.6,44.17,34.27" transform="translate(-1912.09 -680.15)"/><path class="cls-4" d="M2336.72,1862c24.51,3.48,43.53-11.69,49.4-18.87a50.85,50.85,0,0,0,8.31-15,42.17,42.17,0,0,0,1.17-4.53,100.88,100.88,0,0,1-36.21-.19c-14.14-2.7-24.38-7.92-35.62-13.64a202.78,202.78,0,0,1-25-15.08,54.38,54.38,0,0,0-2.32,9.44c-0.73,4.8-3.7,28.74,12.64,45C2319.35,1859.33,2331.93,1861.29,2336.72,1862Z" transform="translate(-1912.09 -680.15)"/><path class="cls-5" d="M2519.61,1928.72l30.1-25.89" transform="translate(-1912.09 -680.15)"/><path class="cls-5" d="M2588.66,1945.95l30.1-25.89" transform="translate(-1912.09 -680.15)"/><path class="cls-5" d="M2553,1938.52l30.1-25.89" transform="translate(-1912.09 -680.15)"/><path class="cls-5" d="M2055.7,1802.93l26.89-29.21" transform="translate(-1912.09 -680.15)"/><path class="cls-5" d="M2087.86,1813.09l26.89-29.21" transform="translate(-1912.09 -680.15)"/><path class="cls-5" d="M2123.21,1817.54l26.89-29.21" transform="translate(-1912.09 -680.15)"/><path class="cls-6" d="M2159.33,1354.36l-0.34.58c-0.23.38-.56,1-1,1.72a76.93,76.93,0,0,0-3.4,6.92,66.53,66.53,0,0,0-3.84,11.81,58.43,58.43,0,0,0-1.21,7.78,55,55,0,0,0-.11,8.92,60.31,60.31,0,0,0,1.46,9.81,66.48,66.48,0,0,0,3.43,10.33,91.06,91.06,0,0,0,12.71,20.89c10.93,13.73,26.12,26.7,43.71,39.18a519,519,0,0,0,59.76,35.84c11.06,5.55,22.48,11.15,34.41,16.31,5.92,2.68,12,5.13,18.12,7.72,3.07,1.26,6.17,2.47,9.28,3.71s6.23,2.48,9.4,3.65c25.24,9.61,51.79,18.27,79.1,25.92s55.36,14.31,83.63,19.84c14.13,2.76,28.32,5.3,42.51,7.34s28.35,4.13,42.44,5.79c28.17,3.32,56,5.75,83,7.15s53.1,1.85,77.85,1.17c3.09-.09,6.17-0.1,9.22-0.25l9.07-.47c6-.33,11.92-0.54,17.72-1.13s11.51-1,17.09-1.51c2.79-.33,5.57-0.61,8.3-1s5.43-.7,8.1-1.09a309.92,309.92,0,0,0,57.26-13.54,235.67,235.67,0,0,0,41.21-19c2.72-1.6,5.22-3.23,7.61-4.7,1.2-.72,2.32-1.51,3.4-2.25l3.14-2.15c4.08-2.72,7.37-5.28,10-7.34s4.66-3.73,6-4.85l2-1.71-2,1.73c-1.33,1.13-3.31,2.8-6,4.9s-5.93,4.68-10,7.43l-3.13,2.18c-1.08.75-2.19,1.55-3.39,2.28-2.38,1.49-4.87,3.14-7.58,4.77a236.18,236.18,0,0,1-41.14,19.39,301.9,301.9,0,0,1-57.34,14c-2.68.41-5.39,0.75-8.13,1.14s-5.51.67-8.3,1c-5.61.58-11.32,1-17.13,1.59s-11.73.86-17.75,1.21l-9.09.51c-3.05.17-6.13,0.19-9.23,0.29-24.79.8-51,.52-78-0.9s-54.88-3.75-83.09-7c-14.1-1.63-28.31-3.57-42.49-5.73s-28.46-4.54-42.62-7.29c-28.31-5.58-56.41-12.28-83.75-20s-53.94-16.42-79.21-26.09c-3.17-1.18-6.3-2.42-9.41-3.67s-6.22-2.46-9.29-3.73c-6.12-2.6-12.21-5.08-18.13-7.8-11.93-5.23-23.35-10.89-34.41-16.51a520.26,520.26,0,0,1-59.75-36.21,282.92,282.92,0,0,1-24.33-19.32,162.38,162.38,0,0,1-19.29-20.33,91.67,91.67,0,0,1-12.61-21.14,66.94,66.94,0,0,1-3.36-10.43,60.65,60.65,0,0,1-1.39-9.88,55.37,55.37,0,0,1,.18-9,58.69,58.69,0,0,1,1.28-7.8,66.68,66.68,0,0,1,3.94-11.8,77,77,0,0,1,3.46-6.9c0.43-.76.76-1.33,1-1.71Z" transform="translate(-1912.09 -680.15)"/><path class="cls-7" d="M2938,837.93c38.72,11.55,54.64,14.72,70.24,30.77,17.14,17.63,22,38.58,23.4,46,5,26.75-3.9,48.84-7.75,58.77-28.06,72.38-28.84,95.21-88.85,256.87a77.6,77.6,0,0,1-25.39,34.7c-28,21.33-60.81,14.69-66,13.54l-511.25-175.21a76.35,76.35,0,0,1-37.24-88l98.19-289.48A91.94,91.94,0,0,1,2472,680.15c32.64,10.16,75.36,23.85,127.31,41.45l7.24,2.46c57.48,19.55,90.89,31.72,138,48.35,94,33.19,96.7,34.53,118.8,41.29C2888.36,821.34,2912.91,830.45,2938,837.93Z" transform="translate(-1912.09 -680.15)"/><path class="cls-8" d="M2624.26,730.5c1.22-3.69,6.39-18,21.43-26.44a46.62,46.62,0,0,1,24.4-5.87l158.58,54.21a46.41,46.41,0,0,1,15.81,18.07c8.44,17.41,2.58,34.22,1.32,37.61" transform="translate(-1912.09 -680.15)"/><path class="cls-9" d="M2550.73,705.14l-140.44,425" transform="translate(-1912.09 -680.15)"/><path class="cls-9" d="M2908.58,828.19l-139.09,425" transform="translate(-1912.09 -680.15)"/><path class="cls-1" d="M2781.5,911.14c28.87,1,41.61,1.07,62,4.35,33.55,5.4,47.37,13.06,51.14,15.23,10.6,6.11,33.72,19.44,33.73,39.17,0,8.52-4.3,15.41-7.62,19.58H2755.39l-151.23,127.3a68.32,68.32,0,0,1-20.67,9.79,69.92,69.92,0,0,1-37,0q8.72-11.89,17.41-23.94,41.43-57.41,79.42-114.24L2479,968.81a49.6,49.6,0,0,1-45.7-39.17l-4.35-99c1.32-2.78,4-7.25,8.7-8.7,9.24-2.86,19.23,8.11,21.76,10.88,3.38,3.71,4.89,6.59,17.41,37,2.81,6.83,5.19,12.65,10.88,18.5a51.67,51.67,0,0,0,12,8.7c12.18,6.3,57.83,10,119.68,7.62-9.52-14.71-17.07-26.43-21.76-33.73-18.26-28.39-24.85-38.87-35.9-54.4-6.41-9-11.81-16.19-15.23-20.67,1.28-2.16,4-6,8.7-7.62a16.54,16.54,0,0,1,9.74,0c16.89,4.2,26.33,6.55,38.39,15.47a89.74,89.74,0,0,1,14.32,13.18c11,12.61,37,38.17,96.26,91.11C2742.77,909.63,2766,910.59,2781.5,911.14Z" transform="translate(-1912.09 -680.15)"/><path class="cls-1" d="M3098.41,803.64" transform="translate(-1912.09 -680.15)"/><path class="cls-7" d="M2604.69,724a22.51,22.51,0,0,1,23.68-5c11.72,4.49,13.94,16.95,14,17.46" transform="translate(-1912.09 -680.15)"/><path class="cls-7" d="M2826.47,801.75a22.51,22.51,0,0,1,23.68-5c11.72,4.49,13.94,16.95,14,17.46" transform="translate(-1912.09 -680.15)"/></svg>